<?xml version="1.0" standalone="no"?>
<!DOCTYPE svg PUBLIC "-//W3C//DTD SVG 20010904//EN"
 "http://www.w3.org/TR/2001/REC-SVG-20010904/DTD/svg10.dtd">
<svg version="1.0" xmlns="http://www.w3.org/2000/svg"
 width="307.000000pt" height="307.000000pt" viewBox="0 0 307.000000 307.000000"
 preserveAspectRatio="xMidYMid meet">
<metadata>
Created by potrace 1.14, written by Peter Selinger 2001-2017
</metadata>
<g transform="translate(0.000000,307.000000) scale(0.100000,-0.100000)"
fill="#000000" stroke="none">
<path d="M1880 2990 l0 -40 -70 0 -70 0 0 35 c0 35 0 35 -45 35 l-45 0 0 -75
0 -75 -35 0 -35 0 0 75 0 75 -45 0 c-45 0 -45 0 -45 -35 0 -33 -2 -35 -35 -35
-34 0 -35 -1 -35 -40 0 -39 -1 -40 -35 -40 l-35 0 0 75 0 75 -40 0 c-39 0 -40
-1 -40 -35 l0 -35 -70 0 -70 0 0 35 0 35 -50 0 -50 0 0 -35 c0 -33 -2 -35 -35
-35 -34 0 -35 -1 -35 -40 l0 -40 -40 0 -40 0 0 -40 c0 -39 -1 -40 -35 -40
l-35 0 0 -460 0 -460 -40 0 -40 0 0 -155 0 -155 40 0 40 0 0 -80 0 -80 40 0
c39 0 40 -1 40 -35 0 -33 2 -35 35 -35 34 0 35 -1 35 -40 l0 -40 195 0 195 0
0 -35 c0 -34 -1 -35 -40 -35 l-40 0 0 -40 0 -40 -40 0 -40 0 0 -540 0 -540 45
0 45 0 0 190 0 190 45 0 45 0 0 40 0 40 145 0 145 0 0 -40 0 -40 70 0 70 0 0
-190 0 -190 45 0 45 0 0 225 0 225 45 0 45 0 0 320 0 320 -45 0 c-45 0 -45 0
-45 35 l0 35 -75 0 -75 0 0 35 0 35 150 0 150 0 0 40 0 40 40 0 c39 0 40 1 40
35 0 34 1 35 40 35 l40 0 0 80 0 80 115 0 115 0 0 155 0 155 -80 0 -80 0 0
425 0 425 -35 0 -35 0 0 75 0 75 -40 0 -40 0 0 40 0 40 -75 0 -75 0 0 40 0 40
-45 0 -45 0 0 -40z m-770 -85 c0 -32 -2 -35 -30 -35 -28 0 -30 3 -30 35 0 32
2 35 30 35 28 0 30 -3 30 -35z m850 0 c0 -33 -2 -35 -35 -35 -33 0 -35 2 -35
35 0 33 2 35 35 35 33 0 35 -2 35 -35z"/>
</g>
</svg>
